PathFileType	4	(X/Y/Z)	C:/Users/opensim2020/Desktop/walking_exp_matlab/subject03_walking14_straight_01.trc																																																																																																																																											
DataRate	CameraRate	NumFrames	NumMarkers	Units	OrigDataRate	OrigDataStartFrame	OrigNumFrames																																																																																																																																							
100	100	4	47	mm	100	604	205																																																																																																																																							
Frame#	Time	LFHD			RFHD			LBHD			RBHD			C7			T10			CLAV			STRN			RBAK			LSHO			LUPA			LELB			LFRM			LWRA			LWRB			LFIN			RSHO			RUPA			RELB			RFRM			RWRA			RWRB			RFIN			LASI			RASI			LPSI			RPSI			LTHI			LKNE			LTIB			LANK			LHEE			LTOE			RTHI			RKNE			RTIB			RANK			RHEE			RTOE			*39			*40			*41			*42			*43			*44			*45			*46		
		X1	Y1	Z1	X2	Y2	Z2	X3	Y3	Z3	X4	Y4	Z4	X5	Y5	Z5	X6	Y6	Z6	X7	Y7	Z7	X8	Y8	Z8	X9	Y9	Z9	X10	Y10	Z10	X11	Y11	Z11	X12	Y12	Z12	X13	Y13	Z13	X14	Y14	Z14	X15	Y15	Z15	X16	Y16	Z16	X17	Y17	Z17	X18	Y18	Z18	X19	Y19	Z19	X20	Y20	Z20	X21	Y21	Z21	X22	Y22	Z22	X23	Y23	Z23	X24	Y24	Z24	X25	Y25	Z25	X26	Y26	Z26	X27	Y27	Z27	X28	Y28	Z28	X29	Y29	Z29	X30	Y30	Z30	X31	Y31	Z31	X32	Y32	Z32	X33	Y33	Z33	X34	Y34	Z34	X35	Y35	Z35	X36	Y36	Z36	X37	Y37	Z37	X38	Y38	Z38	X39	Y39	Z39	X40	Y40	Z40	X41	Y41	Z41	X42	Y42	Z42	X43	Y43	Z43	X44	Y44	Z44	X45	Y45	Z45	X46	Y46	Z46	X47	Y47	Z47
																																																																																																																																														
129	1.28	254.93184	1623.14673	1390.19238	254.30542	1632.41016	1522.84375	128.07936	1577.74011	1396.50598	132.27635	1586.44458	1527.15271	99.38686	1418.17163	1464.13269	75.07104	1105.02332	1457.17773	222.13702	1347.41357	1456.21655	274.32327	1183.97949	1449.67334	59.08106	1241.09521	1563.04883	160.20631	1382.85681	1304.32446	145.95648	1185.49927	1233.80188	156.68578	1062.30884	1220.74146	196.14578	937.83282	1220.40967	233.02925	825.05133	1250.06079	202.54279	824.42572	1203.72302	234.57156	747.97131	1210.11011	185.38396	1369.57947	1618.04871	215.00459	1152.68872	1696.72998	246.00456	1044.3103	1712.25183	280.59698	911.3222	1717.77307	316.91672	818.27728	1681.73584	294.05594	812.367	1730.44495	322.69788	742.59393	1719.00024	245.38272	940.35535	1346.04431	234.112	946.65863	1581.71387	80.70156	960.04187	1386.77856	75.258	979.01782	1535.07043	267.60712	646.98346	1290.66589	336.62067	482.95102	1316.77869	267.30972	295.67825	1330.07849	218.42682	95.30375	1381.72278	175.468	66.96656	1425.82996	356.13165	43.53178	1389.90698	155.99973	653.44507	1615.38196	149.26747	474.60138	1575.87085	80.44405	294.03674	1571.99292	34.68412	82.71085	1515.1344	-9.96436	56.25573	1462.05054	174.83893	36.11927	1497.5105	NaN	NaN	NaN	NaN	NaN	NaN	NaN	NaN	NaN	NaN	NaN	NaN	NaN	NaN	NaN	NaN	NaN	NaN	NaN	NaN	NaN	NaN	NaN	NaN
130	1.29	267.99231	1621.85474	1390.16113	267.65027	1631.45862	1522.82104	141.13986	1576.72156	1396.8623	145.57356	1585.77954	1527.50305	112.77712	1416.98572	1464.41089	88.2169	1103.8241	1456.49768	235.37418	1346.23315	1456.83936	287.47678	1182.80505	1450.67822	72.30114	1239.71362	1563.02429	173.97585	1381.39368	1304.46326	157.92828	1183.76855	1234.78894	166.55923	1060.27856	1221.71021	200.66217	934.11328	1220.55872	231.92242	819.09558	1249.67444	201.82498	820.58142	1202.86206	229.29288	742.16443	1209.06116	197.98526	1368.68176	1618.61438	229.08083	1152.54126	1698.15002	261.78104	1044.67822	1714.07214	300.01724	912.74561	1719.16614	339.61923	821.13867	1682.89526	316.19867	814.13184	1731.22632	347.19705	745.55304	1719.6687	259.47754	938.71906	1347.03101	245.84044	945.6344	1582.49097	94.36398	958.54633	1385.74377	87.30401	977.80774	1533.8551	282.13046	646.12018	1291.8844	350.84909	482.28857	1318.94775	292.26428	291.33575	1333.33655	258.49707	87.68132	1385.51221	217.93805	56.33858	1430.56787	399.28958	44.44951	1391.66418	164.7668	653.01868	1615.65479	156.27477	474.09515	1576.51563	84.22578	294.57428	1572.22168	35.30927	83.80588	1515.37793	-9.56194	57.91394	1462.224	175.00983	36.05243	1497.71204	NaN	NaN	NaN	NaN	NaN	NaN	NaN	NaN	NaN	NaN	NaN	NaN	NaN	NaN	NaN	NaN	NaN	NaN	NaN	NaN	NaN	NaN	NaN	NaN
131	1.3	281.09091	1620.50488	1390.23315	280.95325	1630.46472	1522.81909	154.19656	1575.54749	1397.22009	158.82857	1584.92834	1527.77039	125.94405	1415.90015	1464.42346	101.35273	1102.56653	1455.68579	248.63712	1344.94873	1457.45203	300.71472	1181.4917	1451.63074	85.2044	1238.29797	1562.90674	187.93626	1379.84155	1304.66638	170.19507	1181.89417	1235.61353	176.76527	1058.29846	1222.64136	205.48149	930.7403	1220.77209	231.36604	813.98584	1248.92847	201.41858	817.34955	1202.04541	223.97629	737.13794	1208.20129	210.56746	1367.6698	1619.12781	243.03043	1152.30359	1699.53223	277.10919	1044.98169	1715.93225	319.08127	914.19965	1720.53796	361.85123	824.20386	1684.13281	337.86975	816.01819	1731.8562	371.39548	748.72174	1720.28247	273.9538	937.17181	1347.72864	258.22894	944.59839	1582.75195	107.9222	956.9552	1384.672	99.33852	976.28674	1532.67688	296.31854	644.88007	1293.10962	364.20856	481.07593	1321.70264	316.38855	287.16687	1336.6991	297.75903	81.42761	1389.10828	260.703	47.866	1434.69556	441.30341	45.94433	1393.09326	173.86987	652.51947	1615.81909	163.6161	473.5798	1577.09253	88.49624	295.05862	1572.71326	36.06344	84.91865	1515.79346	-9.18491	59.76791	1462.6499	175.10918	35.71902	1497.81189	198.06825	1682.11292	1441.24695	NaN	NaN	NaN	NaN	NaN	NaN	NaN	NaN	NaN	NaN	NaN	NaN	NaN	NaN	NaN	NaN	NaN	NaN	NaN	NaN	NaN
132	1.31	294.25323	1619.15955	1390.25293	294.17133	1629.36853	1522.81836	167.30557	1574.25659	1397.42993	172.07866	1583.9176	1527.98303	139.35936	1414.7262	1464.42261	114.7433	1101.3241	1455.04077	261.95953	1343.6217	1457.99097	313.9205	1180.02185	1452.45459	98.09882	1236.83459	1562.62073	202.21561	1378.28687	1304.68127	182.60286	1180.10718	1236.41272	187.29373	1056.52502	1223.63867	210.7195	927.89972	1220.95264	231.64856	809.81763	1247.79541	201.5636	814.82233	1201.09106	218.82448	732.8573	1207.40515	223.13013	1366.65906	1619.54651	256.75177	1152.00269	1700.87122	291.84659	1045.18042	1717.68604	337.61993	915.71423	1721.85901	383.79697	827.58368	1685.48145	358.96075	817.98285	1732.44812	395.51395	752.2713	1721.02148	288.09631	935.48877	1348.37268	269.5452	943.09088	1583.87646	121.88122	955.28827	1383.44397	111.66705	974.4931	1531.32202	309.80606	643.05261	1294.42883	376.9888	479.20627	1324.51746	339.63809	283.38889	1340.2583	336.04971	76.45934	1392.52197	302.44113	41.04993	1439.00464	481.96085	48.12158	1394.15991	183.36093	651.96753	1615.92432	171.23561	472.95822	1577.61169	92.9952	295.55603	1573.33179	36.70184	86.06425	1516.6958	-8.82279	61.72685	1463.19104	175.30972	35.62906	1497.96179	NaN	NaN	NaN	NaN	NaN	NaN	NaN	NaN	NaN	NaN	NaN	NaN	NaN	NaN	NaN	NaN	NaN	NaN	NaN	NaN	NaN	NaN	NaN	NaN
